# xmcd
#
# Track frame offsets:
# 150
# 23315
# 42841
# 55189
# 67959
# 76714
# 95934
# 108619
# 119846
# 139099
# 151390
# 167329
# 180924
# 197676
# 219336
#
# Disc length: 3165 seconds
#
#
# Revision: 0
# Processed by: cddbd v1.4PL0 Copyright (c) Steve Scherf et al.
# Submitted via: FreeRIP 2.00 
#
DISCID=bf0c5b0f
DTITLE=The Arhoolies - Live In Germany
DYEAR=1900
DGENRE=Acoustic
TTITLE0=Dust My Broom
TTITLE1=Jitterburg Swing ( Spanish Clap Mix )
TTITLE2=Baby Please Don't Go
TTITLE3=I've Got Mine
TTITLE4=Kepp Your Hands Off Her
TTITLE5=Pony Blues
TTITLE6=Stop Breaking Down
TTITLE7=If You's A Viper
TTITLE8=Say No To The Devil
TTITLE9=Just Can't Be Satisfied
TTITLE10=Steady Rollin' Blues
TTITLE11=Talking Aberdeen Journals Bad Job Blues
TTITLE12=Death Letter
TTITLE13=Hipshake
TTITLE14=Got My Mojo Working
EXTD=
EXTT0=
EXTT1=
EXTT2=
EXTT3=
EXTT4=
EXTT5=
EXTT6=
EXTT7=
EXTT8=
EXTT9=
EXTT10=
EXTT11=
EXTT12=
EXTT13=
EXTT14=
PLAYORDER=
